
        <svg xmlns="http://www.w3.org/2000/svg" xmlns:xlink="http://www.w3.org/1999/xlink" version="1.1" width="3012.684565992512" 
        height="3162.8478143779735" viewBox="0 0 3012.684565992512 3162.8478143779735">
			
			<g transform="scale(8.142390718898682) translate(10, 10)">
				<defs id="SvgjsDefs1411"><linearGradient id="SvgjsLinearGradient1418"><stop id="SvgjsStop1419" stop-color="#147d6c" offset="0"></stop><stop id="SvgjsStop1420" stop-color="#1effff" offset="1"></stop></linearGradient><linearGradient id="SvgjsLinearGradient1421"><stop id="SvgjsStop1422" stop-color="#147d6c" offset="0"></stop><stop id="SvgjsStop1423" stop-color="#1effff" offset="1"></stop></linearGradient></defs><g id="SvgjsG1412" featureKey="ghXSps-0" transform="matrix(3.844507830243616,0,0,3.844507830243616,22.692065064711585,-20.875678691473517)" fill="url(#SvgjsLinearGradient1418)"><title xmlns="http://www.w3.org/2000/svg">carakter</title><path xmlns="http://www.w3.org/2000/svg" d="M30.83,31.29s5.07.64,5.31.85,1.17,1.45,1.17,1.45-6.91-1-8.78-.6Z"></path><path xmlns="http://www.w3.org/2000/svg" d="M38.43,34.26l-1.2-.18c-1.9-.28-7.14-.94-8.6-.61L26.31,34l4.38-3.24.2,0c5.21.66,5.45.86,5.58,1a16.21,16.21,0,0,1,1.25,1.53Zm-8.25-1.87c1.88,0,4.48.34,6,.54l-.31-.37c-.46-.14-2.76-.48-4.89-.75Z"></path><path xmlns="http://www.w3.org/2000/svg" d="M43.3,32.14l5.7-.85,2.66,1.77a32.2,32.2,0,0,0-8.82.53Z"></path><path xmlns="http://www.w3.org/2000/svg" d="M42.09,34.29l.82-2.6,6.2-.92,4.43,3-1.94-.16a32,32,0,0,0-8.66.52Zm1.59-1.71-.1.33a30.84,30.84,0,0,1,6.3-.44l-1-.66Z"></path><path xmlns="http://www.w3.org/2000/svg" d="M53.64,34.65a3.26,3.26,0,0,0-1.28-.43c-6.55-1.81-10.27,0-10.27,0a10.83,10.83,0,0,0-4.53,0,16.53,16.53,0,0,0-11,.43c-1,.32,0,1.31,0,1.31,0,5.56,3.93,6,3.93,6,8.25,1.35,8.22-6.45,8.22-6.45.92-1.13,2.41,0,2.41,0a6.2,6.2,0,0,0,4.56,6.38c8.17,1.56,7.56-6,7.56-6C53.64,35.61,53.92,34.93,53.64,34.65ZM32.4,41.2c-2.85,0-5.15-1.53-5.15-3.42s2.31-3.42,5.15-3.42,5.15,1.53,5.15,3.42S35.25,41.2,32.4,41.2Zm14.84.18c-2.85,0-5.15-1.53-5.15-3.42s2.31-3.42,5.15-3.42S52.4,36.07,52.4,38,50.09,41.38,47.25,41.38Z"></path><path xmlns="http://www.w3.org/2000/svg" d="M32.29,42.64a11.73,11.73,0,0,1-1.9-.16s-4.25-.57-4.35-6.32a1.52,1.52,0,0,1-.43-1.25,1,1,0,0,1,.78-.74l.35-.12a16.63,16.63,0,0,1,10.84-.35,11.28,11.28,0,0,1,4.47,0c.83-.34,4.51-1.59,10.45,0a3.07,3.07,0,0,1,1.5.55.92.92,0,0,1,.26.72,1.93,1.93,0,0,1-.53,1.15,6.84,6.84,0,0,1-1.93,5.09c-1.43,1.28-3.53,1.67-6.23,1.15a6.73,6.73,0,0,1-5-6.59c-.32-.19-1-.47-1.42-.07a7.84,7.84,0,0,1-2.42,5.41A6.67,6.67,0,0,1,32.29,42.64Zm-2.67-1.45a3.2,3.2,0,0,0,.92.3l.13,0A7,7,0,0,1,29.62,41.19ZM47.25,35c-2.52,0-4.65,1.34-4.65,2.92s2.13,2.92,4.65,2.92S51.9,39.54,51.9,38,49.77,35,47.25,35Zm-14.84-.18c-2.52,0-4.65,1.34-4.65,2.92s2.13,2.92,4.65,2.92,4.65-1.34,4.65-2.92S34.93,34.87,32.41,34.87ZM33.88,34c2.1.4,3.72,1.61,4.1,3.12a7.59,7.59,0,0,0,.21-1.58v-.18l.11-.14c1-1.19,2.45-.58,3.1-.08l.2.15v.25a7.56,7.56,0,0,0,.15,1.52c.59-1.72,2.83-3,5.5-3S52,35.26,52.7,36.92a6.34,6.34,0,0,0,0-.92l0-.26.2-.17a1.06,1.06,0,0,0,.36-.59,3.51,3.51,0,0,0-1-.26c-6.36-1.75-9.95-.06-10,0l-.17.08L42,34.71a10.34,10.34,0,0,0-4.29,0l-.13,0-.13,0A15.1,15.1,0,0,0,33.88,34Zm-3.63.16a18.26,18.26,0,0,0-3.18.84l-.38.13a.35.35,0,0,0-.13.06,2.83,2.83,0,0,0,.33.42l.15.15V36c0,.19,0,.37,0,.55A5,5,0,0,1,30.25,34.16Z"></path><path xmlns="http://www.w3.org/2000/svg" d="M56.3,46l-.11-14.35c2.87-15.41-2.76-17.32-2.76-17.32.11-1.81-1.49-4.46-1.49-4.46A7.93,7.93,0,0,1,50,12.42C51.73,10.72,50,7,50,7a9.2,9.2,0,0,1-6.27,6.16C48.11,10.51,47.58,7,47.58,7c-.64,1.17-9.14,0-9.14,0-14.77,0-13.5,8.5-13.5,8.5C21.44,20,23.78,31.65,23.78,31.65,24,32.81,23,46.53,23,46.53,18.43,62,29.09,69.06,29.09,69.06a2.9,2.9,0,0,1-.21-3.19c1.81,6.38,11.28,7.76,11.28,7.76C50.06,71.71,51,65.87,51,65.87a5.8,5.8,0,0,1-.11,2.44C60.76,62.15,56.3,46,56.3,46ZM40.91,52.16H38.84s-2.07,3.08-6.06-.21c0,0,6.22-7,13.95,0C46.73,51.95,43.28,55.06,40.91,52.16ZM54.17,36.79a14.86,14.86,0,0,1-5.77,9.07,6.48,6.48,0,0,1,.85,3.51S45,44.72,43.12,44.65s-6.94-.32-7.58.14a52.63,52.63,0,0,0-5.1,4.57s0-2.69.78-3.33c0,0-5.56-3.51-5.6-8.15s-.78-6.06.35-9c0,0-.39-5.17,1.74-8,0,0-1-1.84,0-1.74s2.55,1.06,2.83.78a4.31,4.31,0,0,1-2.3-2.34s.81,1.84,5.63,2.16A2.17,2.17,0,0,1,33,18.3s2.23,1.7,3.61,1.77,2.92.64,3,1.24c0,0,3.68-.28,5.45-3.12,0,0-.21,2.2-.85,2.76,0,0,2.66-1.7,4.71-1.2a4,4,0,0,0,3.47-.85,17.38,17.38,0,0,1,1.49,9.56A19.55,19.55,0,0,1,54.17,36.79Z"></path><path xmlns="http://www.w3.org/2000/svg" d="M40.17,74.13h-.08c-.37-.05-8.26-1.27-11-6.52a3,3,0,0,0,.47,1.19l1.29,2-2-1.31c-.11-.07-10.9-7.38-6.3-23,.38-5.49.9-13.9.77-14.7C23.19,31.27,21,20,24.43,15.35a6.94,6.94,0,0,1,1.73-4.91C28.41,7.83,32.54,6.5,38.44,6.5c3.82.52,8.19.74,8.72.23l.71-1.3.2,1.49a5.9,5.9,0,0,1-1,3.84,9.87,9.87,0,0,0,2.51-3.93L50,5.68l.51,1.12a9.65,9.65,0,0,1,.79,3.28q.11-.2.21-.41l.4-.85.48.81A11.49,11.49,0,0,1,53.93,14c1.25.7,5.29,4.1,2.75,17.73l.11,14.19c.35,1.29,4.21,16.65-5.65,22.81L50,69.47l.28-.83c-1.36,1.92-4.19,4.36-10,5.48Zm-11.1-9.42.29,1C31,71.43,39.24,73,40.15,73.12c9.36-1.84,10.33-7.27,10.34-7.33L51,62.52l.47,3.28a7.52,7.52,0,0,1,.07,1.44c8.23-6.32,4.31-21,4.27-21.11l0-.13-.11-14.35c2.74-14.77-2.38-16.83-2.43-16.85l-.35-.13,0-.37a7.88,7.88,0,0,0-1-3.38,8.24,8.24,0,0,1-1.59,1.89l-.67-.74c.85-.85.65-2.48.32-3.69a9.39,9.39,0,0,1-6.14,5.27l-2.74.53,2.38-1.45C46.38,11,47,8.88,47.09,7.8c-1.9.5-6.06.06-8.71-.3C32.86,7.5,29,8.7,26.93,11.08a5.82,5.82,0,0,0-1.49,4.35l0,.21-.13.17C22,20,24.25,31.44,24.27,31.56c.21,1.19-.66,13.6-.75,15l0,.11C20,58.42,25.36,65.09,28,67.55a3.14,3.14,0,0,1,.45-2ZM36.24,54a6.07,6.07,0,0,1-3.77-1.64l-.4-.33.34-.39a10.59,10.59,0,0,1,6.8-3.29c2.7-.15,5.34.95,7.86,3.25l.41.37-.41.37a6.14,6.14,0,0,1-4,1.56,3.51,3.51,0,0,1-2.39-1.22h-1.6a3.8,3.8,0,0,1-2.3,1.27A3.89,3.89,0,0,1,36.24,54Zm-2.7-2.07a4.3,4.3,0,0,0,3.09,1,2.83,2.83,0,0,0,1.8-1.06l.15-.22h2.57l.15.18a2.58,2.58,0,0,0,1.85,1,4.74,4.74,0,0,0,2.8-1,9.55,9.55,0,0,0-6.67-2.59A9.56,9.56,0,0,0,33.54,51.9ZM30,51.1l0-1.73a7.84,7.84,0,0,1,.56-3.22c-1.37-1-5.35-4.15-5.38-8.26,0-1.48-.09-2.61-.17-3.6a11.2,11.2,0,0,1,.51-5.47c0-.78-.21-5.2,1.66-8-.27-.57-.54-1.37-.22-1.85a.81.81,0,0,1,.82-.34,3.44,3.44,0,0,1,.55.12,4.45,4.45,0,0,1-.54-1l.92-.38s.69,1.29,4.06,1.75a2.75,2.75,0,0,1-.23-.77l-.17-1.21,1,.74a8.67,8.67,0,0,0,3.34,1.67c1.14.06,2.69.46,3.25,1.2a7,7,0,0,0,4.73-2.84l1.13-1.8-.2,2.11a10.85,10.85,0,0,1-.28,1.6A6.27,6.27,0,0,1,49,19.27a3.45,3.45,0,0,0,3-.73l.47-.44.31.56a17.71,17.71,0,0,1,1.56,9.76,20.29,20.29,0,0,1,.3,8.45A15.7,15.7,0,0,1,49.05,46a6.68,6.68,0,0,1,.7,3.39l-.11,1.12-.76-.83C47.3,48,44.34,45.2,43.1,45.15l-.61,0c-1.5-.06-6.06-.24-6.67.08a54.93,54.93,0,0,0-5,4.42ZM27.77,19.67a4.06,4.06,0,0,0,.38,1l.15.28-.19.26c-2,2.65-1.64,7.62-1.64,7.67V29l0,.1A10.21,10.21,0,0,0,26,34.21c.07,1,.16,2.16.17,3.67,0,4.31,5.31,7.69,5.36,7.73l.6.38-.56.44A2.94,2.94,0,0,0,31,48c1.41-1.33,3.8-3.33,4.24-3.65s2.38-.45,7.28-.26l.61,0c1.54.06,4.13,2.46,5.54,3.89A6.67,6.67,0,0,0,48,46.12l-.28-.47.49-.24a14.39,14.39,0,0,0,5.5-8.7,19.19,19.19,0,0,0-.3-8.09l0-.1v-.1a17.86,17.86,0,0,0-1.18-8.75,4.39,4.39,0,0,1-3.4.57c-1.83-.44-4.3,1.12-4.32,1.14l-.6-.79a1.65,1.65,0,0,0,.33-.65,8.75,8.75,0,0,1-4.56,1.88l-.49,0,0-.48a4.23,4.23,0,0,0-2.51-.79,3.5,3.5,0,0,1-.93-.2l-1.84-.12a15.37,15.37,0,0,1-2.55-.37l-.4.4c-.39.39-1,.16-1.86-.19A8.22,8.22,0,0,0,27.77,19.67Z"></path></g><g id="SvgjsG1413" featureKey="anH1Ye-0" transform="matrix(4.363001678809153,0,0,4.363001678809153,-5.061078161015411,259.0436333930472)" fill="#ffffff"><path d="M7.04 9.38 c1.5067 0 2.5134 0.57332 3.02 1.72 c0.78666 -1.1467 1.8333 -1.72 3.14 -1.72 c1.2933 0 2.2434 0.32666 2.85 0.98 s0.91 1.5533 0.91 2.7 l0 6.94 l-2.84 0 l0 -5.98 c0 -0.90666 -0.13666 -1.5333 -0.41 -1.88 s-0.71668 -0.52 -1.33 -0.52 c-1.2667 0 -1.9 0.86666 -1.9 2.6 l0 5.78 l-2.84 0 l0 -6.1 c0 -0.88 -0.14 -1.48 -0.42 -1.8 s-0.71334 -0.48 -1.3 -0.48 c-0.54666 0 -1.0033 0.21666 -1.37 0.65 s-0.55 1.0033 -0.55 1.71 l0 6.02 l-2.84 0 l0 -10.34 l2.68 0 l0 1.4 l0.04 0 c0.78666 -1.12 1.84 -1.68 3.16 -1.68 z M25.240000000000002 9.38 c0.24 0 0.44668 0.03334 0.62002 0.1 l0 2.64 c-0.30666 -0.06666 -0.64666 -0.1 -1.02 -0.1 c-1.8667 0 -2.8 1.1067 -2.8 3.32 l0 4.66 l-2.84 0 l0 -10.34 l2.7 0 l0 1.92 l0.04 0 c0.28 -0.66666 0.72334 -1.2 1.33 -1.6 s1.2633 -0.6 1.97 -0.6 z M30.080000000000002 5.720000000000001 l0 7.66 l3.58 -3.72 l3.36 0 l-3.9 3.8 l4.34 6.54 l-3.44 0 l-2.84 -4.62 l-1.1 1.06 l0 3.56 l-2.84 0 l0 -14.28 l2.84 0 z M43.480000000000004 9.38 c1.6533 0 2.96 0.50334 3.92 1.51 s1.44 2.3234 1.44 3.95 c0 1.64 -0.49 2.9566 -1.47 3.95 s-2.2766 1.49 -3.89 1.49 c-1.64 0 -2.94 -0.50334 -3.9 -1.51 s-1.44 -2.3166 -1.44 -3.93 c0 -1.6667 0.49 -2.9934 1.47 -3.98 s2.27 -1.48 3.87 -1.48 z M40.980000000000004 14.84 c0 1.0533 0.21334 1.8666 0.64 2.44 s1.0467 0.86 1.86 0.86 c0.84 0 1.47 -0.29334 1.89 -0.88 s0.63 -1.3933 0.63 -2.42 c0 -1.0667 -0.21666 -1.8867 -0.65 -2.46 s-1.0633 -0.86 -1.89 -0.86 c-0.8 0 -1.4133 0.28666 -1.84 0.86 s-0.64 1.3933 -0.64 2.46 z M54.92 9.38 c1.3867 0 2.47 0.28002 3.25 0.84002 s1.2167 1.38 1.31 2.46 l-2.7 0 c-0.04 -0.49334 -0.22 -0.85 -0.54 -1.07 s-0.78666 -0.33 -1.4 -0.33 c-0.53334 0 -0.93 0.08 -1.19 0.24 s-0.39 0.4 -0.39 0.72 c0 0.24 0.08666 0.44 0.26 0.6 s0.43668 0.3 0.79002 0.42 s0.74334 0.22 1.17 0.3 c1.2933 0.25334 2.2066 0.51334 2.74 0.78 s0.92334 0.58666 1.17 0.96 s0.37 0.83334 0.37 1.38 c0 1.16 -0.42334 2.05 -1.27 2.67 s-1.9967 0.93 -3.45 0.93 c-1.52 0 -2.7034 -0.32666 -3.55 -0.98 s-1.2833 -1.54 -1.31 -2.66 l2.7 0 c0 0.53334 0.20666 0.95668 0.62 1.27 s0.93334 0.47 1.56 0.47 c0.53334 0 0.97668 -0.11666 1.33 -0.35 s0.53 -0.55668 0.53 -0.97002 c0 -0.26666 -0.11 -0.48666 -0.33 -0.66 s-0.53 -0.32668 -0.93 -0.46002 s-1.02 -0.28668 -1.86 -0.46002 c-0.66666 -0.13334 -1.26 -0.31334 -1.78 -0.54 s-0.91666 -0.52332 -1.19 -0.88998 s-0.41 -0.81666 -0.41 -1.35 c0 -0.68 0.16334 -1.2733 0.49 -1.78 s0.82666 -0.89 1.5 -1.15 s1.51 -0.39 2.51 -0.39 z M64.68 16.92 l0 3.08 l-3.14 0 l0 -3.08 l3.14 0 z M71.74000000000001 9.38 c3.0134 0.01334 4.52 0.9933 4.52 2.94 l0 5.48 c0 1.0133 0.12 1.7467 0.36 2.2 l-2.88 0 c-0.10666 -0.32 -0.17332 -0.65334 -0.19998 -1 c-0.84 0.85334 -2 1.28 -3.48 1.28 c-1.08 0 -1.9367 -0.27334 -2.57 -0.82 s-0.95 -1.3067 -0.95 -2.28 c0 -0.94666 0.3 -1.68 0.9 -2.2 c0.61334 -0.54666 1.7267 -0.89332 3.34 -1.04 c1.1467 -0.12 1.8733 -0.27 2.18 -0.45 s0.46 -0.45666 0.46 -0.83 c0 -0.46666 -0.14 -0.81332 -0.42 -1.04 s-0.74666 -0.34 -1.4 -0.34 c-0.6 0 -1.0533 0.12334 -1.36 0.37 s-0.48666 0.64332 -0.54 1.19 l-2.84 0 c0.06666 -1.1333 0.53332 -1.9933 1.4 -2.58 s2.0266 -0.88 3.48 -0.88 z M69.38000000000001 17.06 c0 0.88 0.58 1.32 1.74 1.32 c1.52 -0.01334 2.2866 -0.79334 2.3 -2.34 l0 -1.1 c-0.22666 0.22666 -0.8 0.39332 -1.72 0.49998 c-0.8 0.09334 -1.3867 0.25668 -1.76 0.49002 s-0.56 0.61 -0.56 1.13 z M81.38000000000001 5.720000000000001 l0 2.34 l-2.84 0 l0 -2.34 l2.84 0 z M81.38000000000001 9.66 l0 10.34 l-2.84 0 l0 -10.34 l2.84 0 z"></path></g><g id="SvgjsG1414" featureKey="XxVAgm-0" transform="matrix(0.8394017846390102,0,0,0.8394017846390102,20.177386635301414,351.57018125697385)" fill="url(#SvgjsLinearGradient1421)"><path d="M8.58 7.76 l3 0 l0 7.24 c0 3.18 -2.28 5.1 -5.3 5.1 c-3.1 0 -5.3 -2.04 -5.3 -5.1 l0 -7.24 l3 0 l0 7.24 c0 1.44 0.86 2.32 2.3 2.32 c1.48 0 2.3 -0.86 2.3 -2.32 l0 -7.24 z M31.043999999999997 7.76 l3 0 l0 12.24 l-3 0 l-4.8 -7.16 l0 7.16 l-3 0 l0 -12.24 l3 0 l4.8 7.16 l0 -7.16 z M46.448 12.74 l5.2 0 l0 2.48 l-5.2 0 l0 -2.48 z M64.032 7.76 l9.1 0 l0 2.78 l-6.1 0 l0 1.96 l4.9 0 l0 2.78 l-4.9 0 l0 4.72 l-3 0 l0 -12.24 z M84.396 7.76 l3 0 l0 5.74 l3.94 -5.74 l3.72 0 l-4.28 6.12 l4.44 6.12 l-3.68 0 l-4.14 -5.76 l0 5.76 l-3 0 l0 -12.24 z M105.62 7.76 l9.1 0 l0 2.78 l-6.1 0 l0 1.96 l4.9 0 l0 2.78 l-4.9 0 l0 1.94 l6.1 0 l0 2.78 l-9.1 0 l0 -12.24 z M130.28400000000002 20 l-4.3 0 l0 -12.24 l4.3 0 c3.74 0 6.3 2.44 6.3 6.12 c0 3.78 -2.7 6.12 -6.3 6.12 z M128.984 10.54 l0 6.68 l1.3 0 c2.12 0 3.3 -1.34 3.3 -3.34 c0 -0.46 -0.06 -0.88 -0.18 -1.3 c-0.52 -1.46 -1.66 -2.04 -3.12 -2.04 l-1.3 0 z M169.412 7.76 l3 0 l0 7.24 c0 3.18 -2.28 5.1 -5.3 5.1 c-3.1 0 -5.3 -2.04 -5.3 -5.1 l0 -7.24 l3 0 l0 7.24 c0 1.44 0.86 2.32 2.3 2.32 c1.48 0 2.3 -0.86 2.3 -2.32 l0 -7.24 z M191.87599999999998 7.76 l3 0 l0 12.24 l-3 0 l-4.8 -7.16 l0 7.16 l-3 0 l0 -12.24 l3 0 l4.8 7.16 l0 -7.16 z M207.27999999999997 12.74 l5.2 0 l0 2.48 l-5.2 0 l0 -2.48 z M233.88399999999996 13.719999999999999 c0.88 0.62 1.4 1.54 1.4 2.62 c0 2.08 -1.92 3.66 -3.92 3.66 l-6.5 0 l0 -12.24 l6.1 0 c1.6 0 2.92 0.86 3.62 2.28 c0.2 0.46 0.3 0.92 0.3 1.4 c0 0.9 -0.36 1.64 -1 2.28 z M227.86399999999995 10.54 l0 1.96 l3.1 0 c0.52 0 0.92 -0.5 0.92 -1 c0 -0.52 -0.38 -0.96 -0.92 -0.96 l-3.1 0 z M227.86399999999995 15.280000000000001 l0 1.94 l3.5 0 c0.54 0 0.92 -0.44 0.92 -0.96 c0 -0.26 -0.1 -0.5 -0.28 -0.7 c-0.18 -0.18 -0.4 -0.28 -0.64 -0.28 l-3.5 0 z M252.42799999999997 17.32 c2.18 0 3.3 -1.4 3.3 -3.44 c0 -2.16 -1.2 -3.44 -3.3 -3.44 c-2.2 0 -3.3 1.4 -3.3 3.44 c0 2.12 1.22 3.44 3.3 3.44 z M252.42799999999997 20.1 c-3.76 0 -6.3 -2.56 -6.3 -6.22 c0 -3.78 2.66 -6.22 6.3 -6.22 c3.78 0 6.3 2.54 6.3 6.22 c0 3.8 -2.64 6.22 -6.3 6.22 z M277.5919999999999 7.76 l3 0 l0 7.24 c0 3.18 -2.28 5.1 -5.3 5.1 c-3.1 0 -5.3 -2.04 -5.3 -5.1 l0 -7.24 l3 0 l0 7.24 c0 1.44 0.86 2.32 2.3 2.32 c1.48 0 2.3 -0.86 2.3 -2.32 l0 -7.24 z M300.0559999999999 7.76 l3 0 l0 12.24 l-3 0 l-4.8 -7.16 l0 7.16 l-3 0 l0 -12.24 l3 0 l4.8 7.16 l0 -7.16 z M319.2199999999999 20 l-4.3 0 l0 -12.24 l4.3 0 c3.74 0 6.3 2.44 6.3 6.12 c0 3.78 -2.7 6.12 -6.3 6.12 z M317.9199999999999 10.54 l0 6.68 l1.3 0 c2.12 0 3.3 -1.34 3.3 -3.34 c0 -0.46 -0.06 -0.88 -0.18 -1.3 c-0.52 -1.46 -1.66 -2.04 -3.12 -2.04 l-1.3 0 z M336.9439999999999 7.76 l9.1 0 l0 2.78 l-6.1 0 l0 1.96 l4.9 0 l0 2.78 l-4.9 0 l0 1.94 l6.1 0 l0 2.78 l-9.1 0 l0 -12.24 z M361.6079999999999 20 l-4.3 0 l0 -12.24 l4.3 0 c3.74 0 6.3 2.44 6.3 6.12 c0 3.78 -2.7 6.12 -6.3 6.12 z M360.3079999999999 10.54 l0 6.68 l1.3 0 c2.12 0 3.3 -1.34 3.3 -3.34 c0 -0.46 -0.06 -0.88 -0.18 -1.3 c-0.52 -1.46 -1.66 -2.04 -3.12 -2.04 l-1.3 0 z"></path></g>
			</g>
		</svg>
	